{
	"asset":{
		"generator":"Khronos glTF Blender I/O v4.0.44",
		"version":"2.0"
	},
	"scene":0,
	"scenes":[
		{
			"name":"Scene",
			"nodes":[
				0
			]
		}
	],
	"nodes":[
		{
			"mesh":0,
			"name":"DentonCountyCourthouseOnTheSquare"
		}
	],
	"materials":[
		{
			"doubleSided":true,
			"name":"basic",
			"pbrMetallicRoughness":{
				"baseColorTexture":{
					"index":0
				},
				"metallicFactor":0
			}
		}
	],
	"meshes":[
		{
			"name":"Cube.007",
			"primitives":[
				{
					"attributes":{
						"POSITION":0,
						"NORMAL":1,
						"TEXCOORD_0":2
					},
					"indices":3,
					"material":0
				}
			]
		}
	],
	"textures":[
		{
			"sampler":0,
			"source":0
		}
	],
	"images":[
		{
			"mimeType":"image/jpeg",
			"name":"denton_texture",
			"uri":"denton_texture.jpg"
		}
	],
	"accessors":[
		{
			"bufferView":0,
			"componentType":5126,
			"count":18198,
			"max":[
				16.49319076538086,
				27.58812713623047,
				14.668418884277344
			],
			"min":[
				-16.49319076538086,
				-8.114945444503974e-07,
				-14.668418884277344
			],
			"type":"VEC3"
		},
		{
			"bufferView":1,
			"componentType":5126,
			"count":18198,
			"type":"VEC3"
		},
		{
			"bufferView":2,
			"componentType":5126,
			"count":18198,
			"type":"VEC2"
		},
		{
			"bufferView":3,
			"componentType":5123,
			"count":44232,
			"type":"SCALAR"
		}
	],
	"bufferViews":[
		{
			"buffer":0,
			"byteLength":218376,
			"byteOffset":0,
			"target":34962
		},
		{
			"buffer":0,
			"byteLength":218376,
			"byteOffset":218376,
			"target":34962
		},
		{
			"buffer":0,
			"byteLength":145584,
			"byteOffset":436752,
			"target":34962
		},
		{
			"buffer":0,
			"byteLength":88464,
			"byteOffset":582336,
			"target":34963
		}
	],
	"samplers":[
		{
			"magFilter":9729,
			"minFilter":9987
		}
	],
	"buffers":[
		{
			"byteLength":670800,
			"uri":"DentonCountyCourthouseOnTheSquare.bin"
		}
	]
}
